<?xml version="1.0" encoding="utf-8"?>
<!-- Generator: Adobe Illustrator 27.3.1, SVG Export Plug-In . SVG Version: 6.00 Build 0)  -->
<svg version="1.1" id="Layer_1" xmlns="http://www.w3.org/2000/svg" xmlns:xlink="http://www.w3.org/1999/xlink" x="0px" y="0px"
	 viewBox="0 0 179.9 134.7" style="enable-background:new 0 0 179.9 134.7;" xml:space="preserve">
<style type="text/css">
	.st0{fill:url(#SVGID_1_);}
	.st1{fill:url(#SVGID_00000172413570181850703600000004668904987023825547_);}
</style>
<g>
	
		<linearGradient id="SVGID_1_" gradientUnits="userSpaceOnUse" x1="3.248660e-03" y1="750.2" x2="158.9" y2="750.2" gradientTransform="matrix(1 0 0 1 0 -708)">
		<stop  offset="0.15" style="stop-color:#581C87"/>
		<stop  offset="0.5108" style="stop-color:#831843"/>
		<stop  offset="0.85" style="stop-color:#3730A3"/>
	</linearGradient>
	<path class="st0" d="M81.7,84.4L67.8,70.5c0,0-2.6-3.1,0-6.5L86,45.7c0,0,1.9-1.9,4.5-1.9l68.4,0.1L115,0H67.4c0,0-2.8,0.3-4.5,2.1
		L1.5,63.4c0,0-3.3,3.7-0.1,7.3L15,84.4H81.7L81.7,84.4z"/>
	
		<linearGradient id="SVGID_00000129897681241053631150000014256412299211797404_" gradientUnits="userSpaceOnUse" x1="12679.9434" y1="-153.27" x2="12838.7402" y2="-153.27" gradientTransform="matrix(-1 0 0 -1 12859.7402 -60.82)">
		<stop  offset="0.15" style="stop-color:#26ADDF"/>
		<stop  offset="0.85" style="stop-color:#005D9D"/>
	</linearGradient>
	<path style="fill:url(#SVGID_00000129897681241053631150000014256412299211797404_);" d="M98.2,50.2l13.9,13.9c0,0,2.6,3.1,0,6.5
		L93.9,89c0,0-1.9,1.9-4.5,1.9L21,90.8l43.8,43.9h47.6c0,0,2.8-0.3,4.5-2.1l61.4-61.3c0,0,3.3-3.7,0.1-7.3l-13.6-13.6L98.2,50.2
		L98.2,50.2z"/>
</g>
</svg>
